<?xml version="1.0" encoding="utf-8"?>
<!-- Generator: Adobe Illustrator 26.1.0, SVG Export Plug-In . SVG Version: 6.00 Build 0)  -->
<svg version="1.1" id="Capa_1" xmlns="http://www.w3.org/2000/svg" xmlns:xlink="http://www.w3.org/1999/xlink" x="0px" y="0px"
	 viewBox="0 0 536.7 246" style="enable-background:new 0 0 536.7 246;" xml:space="preserve">
<style type="text/css">
	.st0{fill:none;stroke:#2660AA;stroke-width:3;}
	.st1{fill:#363B8E;}
	.st2{fill:none;stroke:#1F2749;stroke-width:6;stroke-linecap:round;stroke-linejoin:round;}
	.st3{fill:none;stroke:#010101;stroke-linecap:round;stroke-linejoin:round;}
	.st4{fill:none;stroke:#848484;stroke-linecap:round;stroke-linejoin:round;}
	.st5{fill:#848484;}
	.st6{fill:none;stroke:#363B8E;stroke-linecap:round;stroke-linejoin:round;}
	.st7{fill:none;stroke:#1F2749;stroke-linecap:round;stroke-linejoin:round;}
	.st8{fill:none;stroke:#99C76A;stroke-linecap:round;stroke-linejoin:round;}
	.st9{fill:#99C76A;}
	.st10{fill:none;stroke:#333333;stroke-linecap:round;stroke-linejoin:round;}
	.st11{fill:#333333;}
	.st12{font-family:'Ubuntu-Regular';}
	.st13{font-size:12px;}
	.st14{letter-spacing:-1;}
	.st15{fill:#1F2749;}
</style>
<g>
	<path class="st0" d="M355.4,163.9c0,0,10.1-1.1,46.4,11.3s49.4,16.8,50.1,17.1c0.7,0.2,28.2,8.4,28.2,8.4"/>
	<path class="st0" d="M357.6,160.8c0,0,10.1-1.1,46.4,11.3c36.3,12.4,49.4,16.9,50.1,17.1c0.6,0.2,28.2,8.4,28.2,8.4"/>
	<path class="st1" d="M105,204.4c0,0-2.4,2-1.8,3.3s4,4.9,10.1,3.9c6.1-1,22.9-3.8,27.8-5.9c4.9-2.1,17.7-7.3,24.5-7.5
		c6.8-0.2,13.3-0.2,18.4-0.6c5.1-0.3,12.2-1,15.9-3.6c3.7-2.6,17.4-6.8,21.1-7s12.9-2.9,18.2-3.9c5.3-1,31-7.1,43.4-9.5
		c12.4-2.4,32.7-5.6,44.6-5.9c11.9-0.3,20.8-1,29.3,0c0,0,7.7-11.3-2.8-11.8c-10.4-0.4-48.5,2.5-56.3,4.4
		c-7.9,1.9-43.4,8.2-48.4,9.8s-27.8,4.8-33.4,5.4c-5.6,0.7-8.4,1.8-16.7,4.8c-8.2,3-15.4,5.6-23,6.3c-7.7,0.7-24.6,1.7-28.9,3.4
		c-4.3,1.7-8.1,4.9-12.3,6.9C132.1,198.3,114.1,202.7,105,204.4"/>
	<path class="st2" d="M354.9,158.1c-10.4-0.4-48.5,2.5-56.3,4.4c-7.9,1.9-43.4,8.2-48.4,9.8c-5,1.6-27.8,4.8-33.4,5.4
		s-8.4,1.8-16.7,4.8c-8.2,2.9-15.3,5.6-23,6.3c-7.6,0.7-24.6,1.7-28.9,3.4c-4.3,1.7-8.1,4.9-12.3,6.9c-2.6,1.2-20.5,5.7-29.7,7.4"/>
	<path class="st3" d="M108.7,203c0,0,4.2,0.7,3.4,4.9"/>
	<line class="st3" x1="110.9" y1="207.3" x2="113.6" y2="206.7"/>
	<path class="st3" d="M113.6,202c0,0,4.2,0.7,3.4,4.9"/>
	<line class="st3" x1="115.8" y1="206.4" x2="118.5" y2="205.7"/>
	<path class="st3" d="M118.8,200.8c2.2,0.3,3.7,2.3,3.4,4.5c0,0.2,0,0.3-0.1,0.4"/>
	<line class="st3" x1="121" y1="205.1" x2="123.6" y2="204.5"/>
	<path class="st3" d="M124.2,199.6c0,0,4.2,0.7,3.4,4.9"/>
	<line class="st3" x1="126.5" y1="203.9" x2="129.1" y2="203.3"/>
	<path class="st3" d="M129.4,198.1c2.2,0.3,3.7,2.3,3.4,4.5c0,0.2,0,0.3-0.1,0.4"/>
	<line class="st3" x1="131.6" y1="202.4" x2="134.2" y2="201.7"/>
	<path class="st3" d="M134.9,196.2c2.2,0.3,3.7,2.3,3.4,4.5c0,0.2,0,0.3-0.1,0.4"/>
	<line class="st3" x1="137.1" y1="200.5" x2="139.7" y2="199.8"/>
	<path class="st3" d="M138.8,194.2c0,0,4.2-0.4,4.5,3.9"/>
	<line class="st3" x1="142.1" y1="197.8" x2="144.5" y2="196.5"/>
	<path class="st3" d="M143,191.8c2.2-0.3,4.2,1.3,4.5,3.4c0,0.2,0,0.3,0,0.5"/>
	<line class="st3" x1="146.2" y1="195.4" x2="148.6" y2="194.1"/>
	<path class="st3" d="M149,189.1c2.2,0.3,3.7,2.3,3.4,4.5c0,0.2-0.1,0.3-0.1,0.5"/>
	<line class="st3" x1="151.2" y1="193.4" x2="153.9" y2="192.8"/>
	<path class="st3" d="M154.5,188.2c2.3,0.8,3.7,3.2,3.2,5.6"/>
	<line class="st3" x1="156.5" y1="192.8" x2="159.1" y2="192.2"/>
	<path class="st3" d="M160.5,187.5c2.3,0.8,3.7,3.2,3.2,5.6"/>
	<line class="st3" x1="162.5" y1="191.9" x2="165.1" y2="191.3"/>
	<path class="st3" d="M166.7,186.7c2.2,1.2,3.1,3.8,2.2,6.1"/>
	<line class="st3" x1="168" y1="191.4" x2="170.7" y2="191.2"/>
	<path class="st3" d="M172.4,186.1c2.2,1.2,3.1,3.8,2.2,6.1"/>
	<line class="st3" x1="173.7" y1="190.7" x2="176.4" y2="190.6"/>
	<path class="st3" d="M178.1,185.5c2.2,1.2,3.1,3.8,2.2,6.1"/>
	<line class="st3" x1="179.3" y1="190.2" x2="182" y2="190"/>
	<path class="st3" d="M183.6,184.7c2.3,1,3.4,3.5,2.7,5.9"/>
	<line class="st3" x1="185.2" y1="189.2" x2="187.9" y2="188.8"/>
	<path class="st3" d="M189.2,183.2c2.3,1,3.4,3.5,2.7,5.9"/>
	<line class="st3" x1="190.8" y1="187.7" x2="193.5" y2="187.3"/>
	<path class="st3" d="M193.3,182c2.4,0.2,4.3,2.3,4.3,4.8"/>
	<line class="st3" x1="196.2" y1="185.8" x2="198.6" y2="184.6"/>
	<path class="st3" d="M198.6,179.9c2.5,0.2,4.3,2.3,4.3,4.8"/>
	<line class="st3" x1="201.6" y1="183.7" x2="204" y2="182.6"/>
	<path class="st3" d="M204,178c2.5,0.2,4.3,2.3,4.3,4.8"/>
	<line class="st3" x1="206.9" y1="181.8" x2="209.4" y2="180.7"/>
	<path class="st3" d="M209.9,175.9c2.4,0.5,4,2.8,3.8,5.2"/>
	<line class="st3" x1="212.3" y1="180.1" x2="214.9" y2="179.2"/>
	<path class="st3" d="M216.2,174.6c2.3,0.9,3.5,3.4,2.9,5.8"/>
	<line class="st3" x1="218" y1="179.1" x2="220.7" y2="178.6"/>
	<path class="st3" d="M222.5,173.9c2.3,0.9,3.5,3.4,2.9,5.8"/>
	<line class="st3" x1="224.3" y1="178.3" x2="226.9" y2="177.9"/>
	<path class="st3" d="M228.4,172.9c2.3,0.9,3.5,3.4,2.9,5.8"/>
	<line class="st3" x1="230.1" y1="177.4" x2="232.8" y2="176.9"/>
	<path class="st3" d="M234.3,172.1c2.3,0.9,3.5,3.4,2.9,5.8"/>
	<line class="st3" x1="236" y1="176.6" x2="238.7" y2="176.1"/>
	<path class="st3" d="M239.8,171.1c2.3,0.8,3.7,3.2,3.2,5.6"/>
	<line class="st3" x1="241.8" y1="175.5" x2="244.5" y2="174.9"/>
	<path class="st3" d="M245.9,170.1c2.3,0.8,3.7,3.2,3.2,5.6"/>
	<line class="st3" x1="247.9" y1="174.5" x2="250.6" y2="173.8"/>
	<path class="st3" d="M251.7,168.9c2.3,0.8,3.7,3.2,3.2,5.6"/>
	<line class="st3" x1="253.7" y1="173.2" x2="256.3" y2="172.6"/>
	<path class="st3" d="M257.5,167.3c2.3,0.8,3.7,3.2,3.2,5.6"/>
	<line class="st3" x1="259.5" y1="171.7" x2="262.1" y2="171"/>
	<path class="st3" d="M263.5,166c2.3,0.8,3.7,3.2,3.2,5.6"/>
	<line class="st3" x1="265.4" y1="170.5" x2="268.1" y2="169.9"/>
	<path class="st3" d="M268.8,165.1c2.3,0.8,3.7,3.2,3.2,5.6"/>
	<line class="st3" x1="270.8" y1="169.5" x2="273.4" y2="168.9"/>
	<path class="st3" d="M274.3,164.2c2.3,0.8,3.7,3.2,3.2,5.6"/>
	<line class="st3" x1="276.2" y1="168.6" x2="278.9" y2="168"/>
	<path class="st3" d="M279.5,163.3c2.3,0.8,3.7,3.2,3.2,5.6"/>
	<line class="st3" x1="281.5" y1="167.6" x2="284.2" y2="167"/>
	<path class="st3" d="M285.2,162.3c2.3,0.8,3.7,3.2,3.2,5.6"/>
	<line class="st3" x1="287.2" y1="166.7" x2="289.8" y2="166.1"/>
	<path class="st3" d="M291,161.1c2.3,0.8,3.7,3.2,3.2,5.6"/>
	<line class="st3" x1="293" y1="165.5" x2="295.6" y2="164.9"/>
	<path class="st3" d="M297.9,159.5c2.2,1.1,3.1,3.7,2.3,6"/>
	<line class="st3" x1="299.2" y1="164.2" x2="301.9" y2="164"/>
	<path class="st3" d="M304.1,158.5c2.2,1.1,3.1,3.7,2.3,6"/>
	<line class="st3" x1="305.4" y1="163.2" x2="308.1" y2="163"/>
	<path class="st3" d="M310,157.7c2.2,1.1,3.1,3.7,2.3,6"/>
	<line class="st3" x1="311.2" y1="162.4" x2="314" y2="162.2"/>
	<path class="st3" d="M316.5,157c2.2,1.1,3.1,3.7,2.3,6"/>
	<line class="st3" x1="317.8" y1="161.6" x2="320.5" y2="161.4"/>
	<path class="st3" d="M322.7,156.5c2.2,1.1,3.1,3.7,2.3,6"/>
	<line class="st3" x1="323.9" y1="161.2" x2="326.6" y2="161"/>
	<path class="st3" d="M329.1,156c2.2,1.1,3.1,3.7,2.3,6"/>
	<line class="st3" x1="330.4" y1="160.6" x2="333.1" y2="160.4"/>
	<path class="st3" d="M335.9,155.4c2.1,1.3,2.8,4,1.7,6.2"/>
	<line class="st3" x1="336.7" y1="160.1" x2="339.4" y2="160.2"/>
	<path class="st3" d="M341.9,155.4c2.1,1.3,2.8,4,1.7,6.2"/>
	<line class="st3" x1="342.7" y1="160.1" x2="345.4" y2="160.2"/>
	<path class="st3" d="M347.4,155c2.1,1.3,2.8,4,1.7,6.2"/>
	<line class="st3" x1="348.3" y1="159.7" x2="351" y2="159.8"/>
	<path class="st3" d="M352.2,155c2.1,1.3,2.8,4,1.7,6.2"/>
	<line class="st3" x1="353" y1="159.7" x2="355.7" y2="159.8"/>
</g>
<path class="st1" d="M347.5,81.1c-14.8,0.8-41.9,2.7-48.2,4.3c-3.6,0.9-12.5,2.6-22,4.4c-11,2.1-23.5,4.5-26.1,5.3
	c-5.6,1.8-29.8,5-34,5.6c-4.9,0.6-7.5,1.5-14.4,4l-2.3,0.8c-8.2,2.9-15.2,5.5-23,6.2c-1.6,0.1-3.6,0.3-5.8,0.5
	c-7.2,0.6-19.3,1.5-22.2,2.7c-2.2,1-4.3,2.2-6.3,3.5c-1.9,1.2-3.8,2.3-5.8,3.3c-2.5,1.2-19.4,5.5-26.3,7.1c-0.2,0-4.8,0.9-5,0.9
	c-1.9,0.1-3.6-1.4-3.8-3.3c-0.7-3.8,2.5-5.3,4.1-5.7c9.8-2.2,27-7.1,28.4-7.7c1.8-0.9,3.5-1.9,5.2-3c2.3-1.5,4.7-2.9,7.2-4
	c3.5-1.4,12.6-2.2,24-3.2c2.2-0.2,4.2-0.3,5.8-0.5c7.1-0.6,13.8-3.1,21.6-5.9l2.3-0.8c7.2-2.6,10.1-3.7,15.7-4.4
	c7.3-0.9,28.5-3.9,32.9-5.3c2.7-0.9,12.4-2.8,26.8-5.5c9.4-1.8,18.3-3.5,21.7-4.3c6.8-1.7,34-4,49.4-4.4c3.3-0.2,6.6-0.2,9.9,0
	c2.8,0.1,4.7,0.7,4.7,2.8C361.9,76.5,359.5,80.5,347.5,81.1"/>
<g>
	<g>
		<line class="st4" x1="128.7" y1="166.9" x2="128.7" y2="191.9"/>
		<g>
			<path class="st5" d="M128.7,191.2l1.4-0.9l0,0l-0.9,2.3c-0.2,0.8-0.4,1.6-0.5,2.5c-0.2-0.8-0.4-1.6-0.5-2.5l-0.9-2.3l0,0
				L128.7,191.2z"/>
		</g>
	</g>
</g>
<path class="st1" d="M347.5,120.8c-14.8,0.8-41.9,2.7-48.2,4.3c-3.6,0.9-12.5,2.6-22,4.4c-11,2.1-23.5,4.5-26.1,5.3
	c-5.6,1.8-29.8,5-34,5.6c-4.9,0.6-7.5,1.5-14.4,4l-2.3,0.8c-8.2,2.9-15.2,5.5-23,6.2c-1.6,0.2-3.6,0.3-5.8,0.5
	c-7.2,0.6-19.3,1.5-22.2,2.7c-2.2,1-4.3,2.2-6.3,3.5c-1.9,1.2-3.8,2.3-5.8,3.3c-2.5,1.2-19.4,5.5-26.3,7.1c-0.2,0.1-4.8,0.9-5,0.9
	c-1.9,0.1-3.6-1.4-3.8-3.3c-0.7-3.8,2.5-5.3,4.1-5.7c9.8-2.2,27-7.1,28.4-7.7c1.8-0.9,3.5-1.9,5.2-3c2.3-1.5,4.7-2.9,7.2-4
	c3.5-1.4,12.6-2.2,24-3.2c2.2-0.2,4.2-0.3,5.8-0.5c7.1-0.6,13.8-3.1,21.6-5.9l2.3-0.8c7.2-2.6,10.1-3.7,15.7-4.4
	c7.3-0.9,28.5-3.9,32.9-5.3c2.7-0.9,12.4-2.8,26.8-5.5c9.4-1.8,18.3-3.5,21.7-4.3c6.8-1.7,34-3.9,49.4-4.4c3.3-0.2,6.6-0.2,9.9,0
	c2.8,0.1,4.7,0.7,4.7,2.8C361.9,116.2,359.5,120.2,347.5,120.8"/>
<g>
	<g>
		<line class="st4" x1="341.1" y1="100.6" x2="341.1" y2="106.9"/>
		<g>
			<path class="st5" d="M341.1,106.2l1.4-0.9l0,0l-0.9,2.4c-0.2,0.8-0.4,1.6-0.5,2.5c-0.2-0.8-0.4-1.6-0.5-2.5l-0.9-2.4l0,0
				L341.1,106.2z"/>
		</g>
	</g>
</g>
<g>
	<g>
		<line class="st4" x1="341" y1="123.8" x2="341" y2="146.8"/>
		<g>
			<path class="st5" d="M341,146.1l1.4-0.9l0,0l-0.9,2.4c-0.2,0.8-0.4,1.6-0.5,2.5c-0.2-0.8-0.4-1.6-0.5-2.5l-0.9-2.4l0,0L341,146.1
				z"/>
		</g>
	</g>
</g>
<line class="st6" x1="91.6" y1="120.1" x2="62.3" y2="104.4"/>
<line class="st7" x1="385.6" y1="28.6" x2="360.6" y2="36.7"/>
<line class="st8" x1="464.2" y1="55.3" x2="354.9" y2="53.3"/>
<line class="st8" x1="351.8" y1="91.1" x2="470.3" y2="103.6"/>
<line class="st6" x1="62.3" y1="104.4" x2="100.2" y2="162.8"/>
<g>
	<path class="st2" d="M354.8,36.8c-10.4-0.4-48.5,2.5-56.3,4.4c-7.9,1.9-43.4,8.2-48.4,9.8s-27.8,4.8-33.4,5.4
		c-5.6,0.7-8.4,1.8-16.7,4.8s-15.3,5.6-23,6.3c-7.6,0.7-24.6,1.7-28.9,3.4c-4.3,1.7-8.1,4.9-12.3,6.9c-2.6,1.2-20.5,5.7-29.7,7.4"/>
	<path class="st3" d="M108.5,81.7c0,0,4.2,0.7,3.4,4.9"/>
	<line class="st3" x1="110.8" y1="86" x2="113.4" y2="85.4"/>
	<path class="st3" d="M113.4,80.8c0,0,4.2,0.7,3.4,4.9"/>
	<line class="st3" x1="115.7" y1="85.1" x2="118.3" y2="84.4"/>
	<path class="st3" d="M118.6,79.5c2.2,0.3,3.7,2.3,3.4,4.5c0,0.1,0,0.3-0.1,0.4"/>
	<line class="st3" x1="120.9" y1="83.8" x2="123.5" y2="83.2"/>
	<path class="st3" d="M124.1,78.3c0,0,4.2,0.7,3.4,4.9"/>
	<line class="st3" x1="126.3" y1="82.6" x2="129" y2="82"/>
	<path class="st3" d="M129.2,76.8c2.2,0.3,3.7,2.3,3.4,4.5c0,0.1,0,0.3-0.1,0.4"/>
	<line class="st3" x1="131.5" y1="81.1" x2="134.1" y2="80.4"/>
	<path class="st3" d="M134.7,74.9c0,0,4.2,0.7,3.4,4.9"/>
	<line class="st3" x1="137" y1="79.2" x2="139.6" y2="78.5"/>
	<path class="st3" d="M138.7,72.9c0,0,4.2-0.4,4.5,3.9"/>
	<line class="st3" x1="142" y1="76.5" x2="144.4" y2="75.2"/>
	<path class="st3" d="M142.8,70.5c0,0,4.2-0.4,4.5,3.9"/>
	<line class="st3" x1="146.1" y1="74.1" x2="148.5" y2="72.8"/>
	<path class="st3" d="M148.8,67.8c2.2,0.3,3.7,2.3,3.4,4.5c0,0.2,0,0.3-0.1,0.5"/>
	<line class="st3" x1="151.1" y1="72.1" x2="153.7" y2="71.5"/>
	<path class="st3" d="M154.3,66.9c2.3,0.8,3.7,3.2,3.2,5.6"/>
	<line class="st3" x1="156.3" y1="71.5" x2="159" y2="70.9"/>
	<path class="st3" d="M160.3,66.2c2.3,0.8,3.7,3.2,3.2,5.6"/>
	<line class="st3" x1="162.3" y1="70.6" x2="165" y2="70"/>
	<path class="st3" d="M166.6,65.4c2.2,1.2,3.1,3.8,2.2,6.1"/>
	<line class="st3" x1="167.8" y1="70.1" x2="170.5" y2="69.9"/>
	<path class="st3" d="M172.3,64.8c2.2,1.2,3.1,3.8,2.2,6.1"/>
	<line class="st3" x1="173.5" y1="69.4" x2="176.2" y2="69.3"/>
	<path class="st3" d="M178,64.2c2.2,1.2,3.1,3.8,2.2,6.1"/>
	<line class="st3" x1="179.2" y1="68.9" x2="181.9" y2="68.7"/>
	<path class="st3" d="M183.5,63.4c2.3,1,3.4,3.5,2.7,5.9"/>
	<line class="st3" x1="185.1" y1="67.9" x2="187.8" y2="67.5"/>
	<path class="st3" d="M189.1,61.9c2.3,1,3.4,3.5,2.7,5.9"/>
	<line class="st3" x1="190.7" y1="66.4" x2="193.4" y2="66"/>
	<path class="st3" d="M193.1,60.7c2.5,0.2,4.3,2.3,4.4,4.8"/>
	<line class="st3" x1="196.1" y1="64.5" x2="198.5" y2="63.3"/>
	<path class="st3" d="M198.5,58.6c2.4,0.2,4.3,2.3,4.3,4.8"/>
	<line class="st3" x1="201.4" y1="62.4" x2="203.9" y2="61.3"/>
	<path class="st3" d="M203.9,56.7c2.5,0.2,4.3,2.3,4.3,4.8"/>
	<line class="st3" x1="206.8" y1="60.5" x2="209.2" y2="59.4"/>
	<path class="st3" d="M209.8,54.6c2.4,0.5,4,2.8,3.8,5.2"/>
	<line class="st3" x1="212.2" y1="58.8" x2="214.8" y2="57.9"/>
	<path class="st3" d="M216.1,53.3c2.3,0.9,3.5,3.4,2.9,5.8"/>
	<line class="st3" x1="217.8" y1="57.8" x2="220.5" y2="57.3"/>
	<path class="st3" d="M222.4,52.6c2.3,0.9,3.5,3.4,2.9,5.8"/>
	<line class="st3" x1="224.1" y1="57" x2="226.8" y2="56.6"/>
	<path class="st3" d="M228.2,51.6c2.3,0.9,3.5,3.4,2.9,5.8"/>
	<line class="st3" x1="230" y1="56.1" x2="232.7" y2="55.6"/>
	<path class="st3" d="M234.1,50.8c2.3,0.9,3.5,3.4,2.9,5.8"/>
	<line class="st3" x1="235.9" y1="55.3" x2="238.6" y2="54.8"/>
	<path class="st3" d="M239.7,49.8c2.3,0.8,3.7,3.2,3.2,5.6"/>
	<line class="st3" x1="241.7" y1="54.2" x2="244.3" y2="53.5"/>
	<path class="st3" d="M245.8,48.8c2.3,0.8,3.7,3.2,3.2,5.6"/>
	<line class="st3" x1="247.8" y1="53.1" x2="250.4" y2="52.5"/>
	<path class="st3" d="M251.5,47.6c2.3,0.8,3.7,3.2,3.2,5.6"/>
	<line class="st3" x1="253.5" y1="51.9" x2="256.2" y2="51.3"/>
	<path class="st3" d="M257.3,46c2.3,0.8,3.7,3.2,3.2,5.6"/>
	<line class="st3" x1="259.3" y1="50.4" x2="262" y2="49.7"/>
	<path class="st3" d="M263.3,44.8c2.3,0.8,3.7,3.2,3.2,5.6"/>
	<line class="st3" x1="265.3" y1="49.1" x2="267.9" y2="48.5"/>
	<path class="st3" d="M268.6,43.8c2.3,0.8,3.7,3.2,3.2,5.6"/>
	<line class="st3" x1="270.6" y1="48.2" x2="273.3" y2="47.6"/>
	<path class="st3" d="M274.1,42.9c2.3,0.8,3.7,3.2,3.2,5.6"/>
	<line class="st3" x1="276.1" y1="47.3" x2="278.8" y2="46.7"/>
	<path class="st3" d="M279.4,42c2.3,0.8,3.7,3.2,3.2,5.6"/>
	<line class="st3" x1="281.4" y1="46.3" x2="284" y2="45.7"/>
	<path class="st3" d="M285,41c2.3,0.8,3.7,3.2,3.2,5.6"/>
	<line class="st3" x1="287" y1="45.4" x2="289.7" y2="44.8"/>
	<path class="st3" d="M290.9,39.8c2.3,0.8,3.7,3.2,3.2,5.6"/>
	<line class="st3" x1="292.8" y1="44.2" x2="295.5" y2="43.6"/>
	<path class="st3" d="M297.8,38.2c2.2,1.1,3.1,3.7,2.3,6"/>
	<line class="st3" x1="299" y1="42.9" x2="301.7" y2="42.7"/>
	<path class="st3" d="M304,37.2c2.2,1.1,3.1,3.7,2.3,6"/>
	<line class="st3" x1="305.2" y1="41.9" x2="307.9" y2="41.7"/>
	<path class="st3" d="M309.8,36.4c2.2,1.1,3.1,3.7,2.3,6"/>
	<line class="st3" x1="311.1" y1="41.1" x2="313.8" y2="40.9"/>
	<path class="st3" d="M316.4,35.7c2.2,1.1,3.1,3.7,2.3,6"/>
	<line class="st3" x1="317.6" y1="40.3" x2="320.4" y2="40.1"/>
	<path class="st3" d="M322.5,35.2c2.2,1.1,3.1,3.7,2.3,6"/>
	<line class="st3" x1="323.8" y1="39.9" x2="326.5" y2="39.7"/>
	<path class="st3" d="M329,34.7c2.2,1.1,3.1,3.7,2.3,6"/>
	<line class="st3" x1="330.2" y1="39.3" x2="332.9" y2="39.1"/>
	<path class="st3" d="M335.7,34c2.1,1.3,2.8,4.1,1.7,6.3"/>
	<line class="st3" x1="336.5" y1="38.8" x2="339.3" y2="38.9"/>
	<path class="st3" d="M341.7,34c2.1,1.3,2.8,4.1,1.7,6.3"/>
	<line class="st3" x1="342.5" y1="38.8" x2="345.3" y2="38.9"/>
	<path class="st3" d="M347.3,33.7c2.1,1.3,2.8,4,1.7,6.2"/>
	<line class="st3" x1="348.1" y1="38.4" x2="350.8" y2="38.5"/>
	<path class="st3" d="M352,33.7c2.1,1.3,2.8,4,1.7,6.2"/>
	<line class="st3" x1="352.8" y1="38.4" x2="355.6" y2="38.5"/>
</g>
<g>
	<path class="st0" d="M347.7,94.8c0,0,10.1-1.1,46.4,11.3c36.3,12.4,49.4,16.8,50.1,17.1c0.7,0.2,28.2,8.4,28.2,8.4"/>
	<path class="st9" d="M115.3,144.4c-1.7,0-3-1.3-3-3c0-1.4,1-2.6,2.4-2.9c9.8-2.2,18.7-4.6,20-5.3c1.8-0.9,3.5-1.9,5.2-3
		c2.3-1.5,4.7-2.9,7.2-4c3.5-1.4,12.6-2.2,24-3.2l5.8-0.5c7-0.6,13.8-3.1,21.6-5.9l2.3-0.8c7.2-2.6,10.1-3.6,15.7-4.3
		c7.3-0.9,28.5-3.9,32.9-5.3c2.7-0.9,12.4-2.8,26.8-5.5c9.4-1.8,18.3-3.5,21.7-4.3c6.8-1.7,34-4,49.4-4.5c1.8,0,3.7,0.5,5.2,1.4
		c0.8,0.5-2.2,0.5-2.1,1.5c0,1,2.2,1,1.7,1.8c-0.7,1.1-4,1.3-4.6,1.3c-14.8,0.5-41.9,2.7-48.2,4.3c-3.6,0.9-12.5,2.6-22,4.4
		c-11,2.1-23.5,4.5-26.1,5.3c-5.6,1.8-29.8,5-34,5.6c-4.9,0.6-7.5,1.5-14.4,4l-2.3,0.8c-8.2,2.9-15.2,5.5-23,6.2
		c-1.6,0.1-3.6,0.3-5.8,0.5c-7.2,0.6-19.3,1.5-22.2,2.7c-2.2,1-4.3,2.2-6.3,3.5c-1.9,1.2-3.8,2.3-5.8,3.3
		c-2.5,1.2-14.4,4.1-21.3,5.7C115.8,144.3,115.5,144.4,115.3,144.4"/>
</g>
<g>
	<path class="st0" d="M347.7,57.2c0,0,10.1-1.1,46.4,11.3c36.3,12.4,49.4,16.8,50.1,17.1c0.7,0.2,28.2,8.4,28.2,8.4"/>
	<path class="st9" d="M115.3,106.7c-1.7,0-3-1.3-3-3c0-1.4,1-2.6,2.4-2.9c9.8-2.2,18.7-4.6,20-5.3c1.8-0.9,3.5-1.9,5.2-3
		c2.3-1.5,4.7-2.9,7.2-4c3.5-1.4,12.6-2.2,24-3.2c2.2-0.2,4.2-0.3,5.8-0.5c7-0.6,13.8-3.1,21.6-5.9l2.3-0.8
		c7.2-2.6,10.1-3.6,15.7-4.3c7.3-0.9,28.5-3.9,32.9-5.3c2.7-0.9,12.4-2.8,26.8-5.5c9.4-1.8,18.3-3.5,21.7-4.3c6.8-1.7,34-4,49.4-4.5
		c1.8,0,3.7,0.5,5.2,1.4c0.8,0.5-2.2,0.5-2.1,1.5c0,1,2.2,1,1.7,1.8c-0.7,1-4,1.3-4.6,1.3c-14.8,0.5-41.9,2.7-48.2,4.3
		c-3.6,0.9-12.5,2.6-22,4.4c-11,2.1-23.5,4.5-26.1,5.3c-5.6,1.8-29.8,5-34,5.6c-4.9,0.6-7.5,1.5-14.4,4l-2.3,0.8
		c-8.2,2.9-15.2,5.5-23,6.2c-1.6,0.1-3.6,0.3-5.8,0.5c-7.2,0.6-19.3,1.5-22.2,2.7c-2.2,1-4.3,2.2-6.3,3.5c-1.9,1.2-3.8,2.3-5.8,3.3
		c-2.5,1.2-14.4,4.1-21.3,5.7C115.8,106.6,115.5,106.7,115.3,106.7"/>
</g>
<line class="st10" x1="103.1" y1="211.7" x2="61" y2="223.2"/>
<text transform="matrix(1.01 0 0 1 15.6431 223.1648)"><tspan x="0" y="0" class="st11 st12 st13 st14">T</tspan><tspan x="5.6" y="0" class="st11 st12 st13">extile</tspan><tspan x="-5.9" y="14.4" class="st11 st12 st13">Actuator</tspan></text>
<text transform="matrix(1.01 0 0 1 12.0352 97.3401)"><tspan x="0" y="0" class="st1 st12 st13">Rigid</tspan><tspan x="-5.8" y="14.4" class="st1 st12 st13">  Fabric</tspan></text>
<text transform="matrix(1 0 0 1.0101 380.8728 21.8913)"><tspan x="0" y="0" class="st15 st12 st13">Plated Stretch</tspan><tspan x="22.5" y="14.3" class="st15 st12 st13">Fabric</tspan></text>
<text transform="matrix(1.01 0 0 1 472.3926 53.1452)"><tspan x="0" y="0" class="st9 st12 st13">Flexion</tspan><tspan x="0" y="14.4" class="st9 st12 st13">Balloon</tspan></text>
<text transform="matrix(1.01 0 0 1 476.1572 107.5346)"><tspan x="0" y="0" class="st9 st12 st13">Extension</tspan><tspan x="6.1" y="14.4" class="st9 st12 st13">Balloon</tspan></text>
<g>
	<g>
		<line class="st4" x1="341" y1="83.5" x2="341" y2="87.5"/>
		<g>
			<path class="st5" d="M341,86.8l1.4-0.9l0,0l-0.9,2.4c-0.2,0.8-0.4,1.6-0.5,2.5c-0.2-0.8-0.4-1.6-0.5-2.5l-0.9-2.4l0,0L341,86.8z"
				/>
		</g>
	</g>
</g>
<g>
	<g>
		<line class="st4" x1="341" y1="61.7" x2="341" y2="67.9"/>
		<g>
			<path class="st5" d="M341,67.2l1.4-0.9l0,0l-0.9,2.4c-0.2,0.8-0.4,1.6-0.5,2.5c-0.2-0.8-0.4-1.6-0.5-2.5l-0.9-2.4l0,0L341,67.2z"
				/>
		</g>
	</g>
</g>
<g>
	<g>
		<line class="st4" x1="341" y1="43.1" x2="341" y2="49.4"/>
		<g>
			<path class="st5" d="M341,48.7l1.4-0.9l0,0l-0.9,2.4c-0.2,0.8-0.4,1.6-0.5,2.5c-0.2-0.8-0.4-1.6-0.5-2.5l-0.9-2.4l0,0L341,48.7z"
				/>
		</g>
	</g>
</g>
<g>
	<g>
		<line class="st4" x1="128.7" y1="143.6" x2="128.7" y2="149.8"/>
		<g>
			<path class="st5" d="M128.7,149.1l1.4-0.9l0,0l-0.9,2.3c-0.2,0.8-0.4,1.6-0.5,2.5c-0.2-0.8-0.4-1.6-0.5-2.5l-0.9-2.3l0,0
				L128.7,149.1z"/>
		</g>
	</g>
</g>
<g>
	<g>
		<line class="st4" x1="128.7" y1="86" x2="128.7" y2="92.3"/>
		<g>
			<path class="st5" d="M128.7,91.6l1.4-0.9l0,0l-0.9,2.4c-0.2,0.8-0.4,1.6-0.5,2.5c-0.2-0.8-0.4-1.6-0.5-2.5l-0.9-2.4l0,0
				L128.7,91.6z"/>
		</g>
	</g>
</g>
<g>
	<g>
		<line class="st4" x1="128.7" y1="126.2" x2="128.7" y2="130.2"/>
		<g>
			<path class="st5" d="M128.7,129.5l1.4-0.9l0,0l-0.9,2.4c-0.2,0.8-0.4,1.6-0.5,2.5c-0.2-0.8-0.4-1.6-0.5-2.5l-0.9-2.4l0,0
				L128.7,129.5z"/>
		</g>
	</g>
</g>
<g>
	<g>
		<line class="st4" x1="128.7" y1="105.4" x2="128.7" y2="110.3"/>
		<g>
			<path class="st5" d="M128.7,109.6l1.4-0.9l0,0l-0.9,2.4c-0.2,0.8-0.4,1.6-0.5,2.5c-0.2-0.8-0.4-1.6-0.5-2.5l-0.9-2.4l0,0
				L128.7,109.6z"/>
		</g>
	</g>
</g>
</svg>
