<?xml version="1.0" encoding="utf-8"?>
<!-- Generator: Adobe Illustrator 26.2.1, SVG Export Plug-In . SVG Version: 6.00 Build 0)  -->
<svg version="1.1" id="Capa_1" xmlns="http://www.w3.org/2000/svg" xmlns:xlink="http://www.w3.org/1999/xlink" x="0px" y="0px"
	 viewBox="0 0 469.19 160.62" style="enable-background:new 0 0 469.19 160.62;" xml:space="preserve">
<style type="text/css">
	.st0{fill:#FFFFFF;}
	.st1{fill:none;stroke:#000000;stroke-miterlimit:10;}
	.st2{fill:none;stroke:#000000;stroke-miterlimit:10;stroke-dasharray:2.8006,2.8006;}
	.st3{fill:none;stroke:#000000;stroke-miterlimit:10;stroke-dasharray:2.8093,2.8093;}
	.st4{fill:#FFFFFF;stroke:#000000;stroke-miterlimit:10;}
	.st5{fill:#FFFFFF;stroke:#000000;stroke-miterlimit:10;stroke-dasharray:3;}
	.st6{fill:none;stroke:#000000;stroke-width:0.5;stroke-miterlimit:10;}
	.st7{font-family:'MyriadPro-Regular';}
	.st8{font-size:12px;}
</style>
<g>
	<g>
		<polyline class="st0" points="415.08,98.68 457.29,83.05 415.08,67.05 		"/>
		<g>
			<line class="st1" x1="415.08" y1="98.68" x2="416.49" y2="98.16"/>
			<line class="st2" x1="419.12" y1="97.19" x2="454.57" y2="84.06"/>
			<polyline class="st1" points="455.88,83.57 457.29,83.05 455.89,82.52 			"/>
			<line class="st3" x1="453.26" y1="81.52" x2="417.8" y2="68.08"/>
			<line class="st1" x1="416.49" y1="67.58" x2="415.08" y2="67.05"/>
		</g>
	</g>
	<polygon class="st4" points="62.05,125.39 62.05,40.35 345.14,40.35 416.38,67.36 416.38,99 345.14,125.39 	"/>
	<line class="st5" x1="343.83" y1="40.35" x2="343.83" y2="125.39"/>
	<line class="st5" x1="454.61" y1="82.87" x2="341.16" y2="82.87"/>
</g>
<g>
	<g>
		<line class="st6" x1="62.3" y1="24.86" x2="343.58" y2="24.86"/>
		<g>
			<rect x="62.05" y="23.24" width="0.5" height="3.25"/>
		</g>
		<g>
			<rect x="343.33" y="23.24" width="0.5" height="3.25"/>
		</g>
	</g>
</g>
<text transform="matrix(1 0 0 1 185.3567 21.2109)" class="st7 st8">10 cm</text>
<text transform="matrix(1 0 0 1 387.8154 154)" class="st7 st8">4 cm</text>
<text transform="matrix(0.9251 0.3797 -0.3797 0.9251 369.4478 40.3214)" class="st7 st8">2.5 cm</text>
<text transform="matrix(1 0 0 1 17.4689 85.2234)" class="st7 st8">3 cm</text>
<g>
	<g>
		<line class="st6" x1="48.7" y1="40.6" x2="48.7" y2="125.14"/>
		<g>
			<rect x="47.07" y="40.35" width="3.25" height="0.5"/>
		</g>
		<g>
			<rect x="47.07" y="124.89" width="3.25" height="0.5"/>
		</g>
	</g>
</g>
<g>
	<g>
		<line class="st6" x1="344.07" y1="33.22" x2="416.15" y2="62.8"/>
		<g>
			<rect x="342.44" y="32.97" transform="matrix(0.3796 -0.9251 0.9251 0.3796 182.7138 338.9113)" width="3.25" height="0.5"/>
		</g>
		<g>
			<rect x="414.53" y="62.55" transform="matrix(0.3797 -0.9251 0.9251 0.3797 200.0508 423.9436)" width="3.25" height="0.5"/>
		</g>
	</g>
</g>
<g>
	<g>
		<line class="st6" x1="344.08" y1="140.6" x2="457.04" y2="140.6"/>
		<g>
			<rect x="343.83" y="138.98" width="0.5" height="3.25"/>
		</g>
		<g>
			<rect x="456.79" y="138.98" width="0.5" height="3.25"/>
		</g>
	</g>
</g>
</svg>
